<mxfile host="Electron" modified="2024-01-05T08:05:51.986Z" agent="Mozilla/5.0 (Windows NT 10.0; Win64; x64) AppleWebKit/537.36 (KHTML, like Gecko) draw.io/21.7.5 Chrome/114.0.5735.289 Electron/25.8.1 Safari/537.36" etag="xiH6m3qM1E5lKXzIAs1G" version="21.7.5" type="device">
  <diagram name="Page-1" id="rlB1kH9kJK6QGPvf592n">
    <mxGraphModel dx="705" dy="1251" grid="1" gridSize="10" guides="1" tooltips="1" connect="1" arrows="1" fold="1" page="1" pageScale="1" pageWidth="850" pageHeight="1100" math="0" shadow="0">
      <root>
        <mxCell id="0" />
        <mxCell id="1" parent="0" />
        <mxCell id="2CG9DLgCM-IoBq1qqFVT-6" style="edgeStyle=orthogonalEdgeStyle;rounded=0;orthogonalLoop=1;jettySize=auto;html=1;entryX=0.5;entryY=0;entryDx=0;entryDy=0;" edge="1" parent="1" source="2CG9DLgCM-IoBq1qqFVT-1" target="2CG9DLgCM-IoBq1qqFVT-4">
          <mxGeometry relative="1" as="geometry" />
        </mxCell>
        <mxCell id="2CG9DLgCM-IoBq1qqFVT-1" value="CHAR = token from compressed data" style="rounded=0;whiteSpace=wrap;html=1;" vertex="1" parent="1">
          <mxGeometry x="360" y="160" width="135" height="40" as="geometry" />
        </mxCell>
        <mxCell id="2CG9DLgCM-IoBq1qqFVT-3" style="edgeStyle=orthogonalEdgeStyle;rounded=0;orthogonalLoop=1;jettySize=auto;html=1;entryX=0.5;entryY=0;entryDx=0;entryDy=0;" edge="1" parent="1" source="2CG9DLgCM-IoBq1qqFVT-2" target="2CG9DLgCM-IoBq1qqFVT-1">
          <mxGeometry relative="1" as="geometry" />
        </mxCell>
        <mxCell id="2CG9DLgCM-IoBq1qqFVT-2" value="START" style="rounded=1;whiteSpace=wrap;html=1;" vertex="1" parent="1">
          <mxGeometry x="392.5" y="100" width="70" height="30" as="geometry" />
        </mxCell>
        <mxCell id="2CG9DLgCM-IoBq1qqFVT-7" style="edgeStyle=orthogonalEdgeStyle;rounded=0;orthogonalLoop=1;jettySize=auto;html=1;entryX=0.5;entryY=0;entryDx=0;entryDy=0;" edge="1" parent="1" source="2CG9DLgCM-IoBq1qqFVT-4" target="2CG9DLgCM-IoBq1qqFVT-5">
          <mxGeometry relative="1" as="geometry" />
        </mxCell>
        <mxCell id="2CG9DLgCM-IoBq1qqFVT-4" value="Element = element in dictionary for CHAR&amp;nbsp;" style="rounded=0;whiteSpace=wrap;html=1;" vertex="1" parent="1">
          <mxGeometry x="367.5" y="230" width="120" height="40" as="geometry" />
        </mxCell>
        <mxCell id="2CG9DLgCM-IoBq1qqFVT-9" style="edgeStyle=orthogonalEdgeStyle;rounded=0;orthogonalLoop=1;jettySize=auto;html=1;entryX=0.5;entryY=0;entryDx=0;entryDy=0;" edge="1" parent="1" source="2CG9DLgCM-IoBq1qqFVT-5" target="2CG9DLgCM-IoBq1qqFVT-8">
          <mxGeometry relative="1" as="geometry" />
        </mxCell>
        <mxCell id="2CG9DLgCM-IoBq1qqFVT-5" value="Output Element to Decoded Output" style="rounded=0;whiteSpace=wrap;html=1;" vertex="1" parent="1">
          <mxGeometry x="367.5" y="290" width="120" height="40" as="geometry" />
        </mxCell>
        <mxCell id="2CG9DLgCM-IoBq1qqFVT-11" value="" style="edgeStyle=orthogonalEdgeStyle;rounded=0;orthogonalLoop=1;jettySize=auto;html=1;" edge="1" parent="1" source="2CG9DLgCM-IoBq1qqFVT-8" target="2CG9DLgCM-IoBq1qqFVT-10">
          <mxGeometry relative="1" as="geometry" />
        </mxCell>
        <mxCell id="2CG9DLgCM-IoBq1qqFVT-8" value="New STRING = Element" style="rounded=0;whiteSpace=wrap;html=1;" vertex="1" parent="1">
          <mxGeometry x="356.25" y="360" width="142.5" height="30" as="geometry" />
        </mxCell>
        <mxCell id="2CG9DLgCM-IoBq1qqFVT-13" style="edgeStyle=orthogonalEdgeStyle;rounded=0;orthogonalLoop=1;jettySize=auto;html=1;entryX=0.5;entryY=0;entryDx=0;entryDy=0;" edge="1" parent="1" source="2CG9DLgCM-IoBq1qqFVT-10" target="2CG9DLgCM-IoBq1qqFVT-12">
          <mxGeometry relative="1" as="geometry" />
        </mxCell>
        <mxCell id="2CG9DLgCM-IoBq1qqFVT-35" value="Y" style="edgeLabel;html=1;align=center;verticalAlign=middle;resizable=0;points=[];" vertex="1" connectable="0" parent="2CG9DLgCM-IoBq1qqFVT-13">
          <mxGeometry x="0.6476" relative="1" as="geometry">
            <mxPoint x="-8" as="offset" />
          </mxGeometry>
        </mxCell>
        <mxCell id="2CG9DLgCM-IoBq1qqFVT-25" style="edgeStyle=orthogonalEdgeStyle;rounded=0;orthogonalLoop=1;jettySize=auto;html=1;exitX=0;exitY=0.5;exitDx=0;exitDy=0;entryX=1;entryY=0.5;entryDx=0;entryDy=0;" edge="1" parent="1" source="2CG9DLgCM-IoBq1qqFVT-10" target="2CG9DLgCM-IoBq1qqFVT-24">
          <mxGeometry relative="1" as="geometry" />
        </mxCell>
        <mxCell id="2CG9DLgCM-IoBq1qqFVT-36" value="N" style="edgeLabel;html=1;align=center;verticalAlign=middle;resizable=0;points=[];" vertex="1" connectable="0" parent="2CG9DLgCM-IoBq1qqFVT-25">
          <mxGeometry x="0.1158" y="3" relative="1" as="geometry">
            <mxPoint x="6" y="-13" as="offset" />
          </mxGeometry>
        </mxCell>
        <mxCell id="2CG9DLgCM-IoBq1qqFVT-10" value="More bytes &lt;br&gt;to input?" style="rhombus;whiteSpace=wrap;html=1;" vertex="1" parent="1">
          <mxGeometry x="387.5" y="420" width="80" height="80" as="geometry" />
        </mxCell>
        <mxCell id="2CG9DLgCM-IoBq1qqFVT-15" style="edgeStyle=orthogonalEdgeStyle;rounded=0;orthogonalLoop=1;jettySize=auto;html=1;exitX=0.5;exitY=1;exitDx=0;exitDy=0;entryX=0.5;entryY=0;entryDx=0;entryDy=0;" edge="1" parent="1" source="2CG9DLgCM-IoBq1qqFVT-12" target="2CG9DLgCM-IoBq1qqFVT-14">
          <mxGeometry relative="1" as="geometry" />
        </mxCell>
        <mxCell id="2CG9DLgCM-IoBq1qqFVT-12" value="Last STRING = New STRING" style="rounded=0;whiteSpace=wrap;html=1;" vertex="1" parent="1">
          <mxGeometry x="341.25" y="520" width="172.5" height="20" as="geometry" />
        </mxCell>
        <mxCell id="2CG9DLgCM-IoBq1qqFVT-17" style="edgeStyle=orthogonalEdgeStyle;rounded=0;orthogonalLoop=1;jettySize=auto;html=1;exitX=0.5;exitY=1;exitDx=0;exitDy=0;" edge="1" parent="1" source="2CG9DLgCM-IoBq1qqFVT-14" target="2CG9DLgCM-IoBq1qqFVT-16">
          <mxGeometry relative="1" as="geometry" />
        </mxCell>
        <mxCell id="2CG9DLgCM-IoBq1qqFVT-14" value="CHAR =token from compressed data" style="rounded=0;whiteSpace=wrap;html=1;" vertex="1" parent="1">
          <mxGeometry x="367.5" y="570" width="120" height="40" as="geometry" />
        </mxCell>
        <mxCell id="2CG9DLgCM-IoBq1qqFVT-20" style="edgeStyle=orthogonalEdgeStyle;rounded=0;orthogonalLoop=1;jettySize=auto;html=1;entryX=0.5;entryY=0;entryDx=0;entryDy=0;" edge="1" parent="1" source="2CG9DLgCM-IoBq1qqFVT-16" target="2CG9DLgCM-IoBq1qqFVT-19">
          <mxGeometry relative="1" as="geometry" />
        </mxCell>
        <mxCell id="2CG9DLgCM-IoBq1qqFVT-32" value="Y" style="edgeLabel;html=1;align=center;verticalAlign=middle;resizable=0;points=[];" vertex="1" connectable="0" parent="2CG9DLgCM-IoBq1qqFVT-20">
          <mxGeometry x="0.4062" y="2" relative="1" as="geometry">
            <mxPoint x="11" y="-11" as="offset" />
          </mxGeometry>
        </mxCell>
        <mxCell id="2CG9DLgCM-IoBq1qqFVT-30" style="edgeStyle=orthogonalEdgeStyle;rounded=0;orthogonalLoop=1;jettySize=auto;html=1;exitX=1;exitY=0.5;exitDx=0;exitDy=0;entryX=0;entryY=0.5;entryDx=0;entryDy=0;" edge="1" parent="1" source="2CG9DLgCM-IoBq1qqFVT-16" target="2CG9DLgCM-IoBq1qqFVT-29">
          <mxGeometry relative="1" as="geometry" />
        </mxCell>
        <mxCell id="2CG9DLgCM-IoBq1qqFVT-31" value="N" style="edgeLabel;html=1;align=center;verticalAlign=middle;resizable=0;points=[];" vertex="1" connectable="0" parent="2CG9DLgCM-IoBq1qqFVT-30">
          <mxGeometry x="-0.1243" y="4" relative="1" as="geometry">
            <mxPoint x="-5" y="-11" as="offset" />
          </mxGeometry>
        </mxCell>
        <mxCell id="2CG9DLgCM-IoBq1qqFVT-16" value="is&lt;br&gt;CHAR(token)&lt;br&gt;in dictionary&lt;br&gt;?" style="rhombus;whiteSpace=wrap;html=1;" vertex="1" parent="1">
          <mxGeometry x="371.25" y="630" width="112.5" height="90" as="geometry" />
        </mxCell>
        <mxCell id="2CG9DLgCM-IoBq1qqFVT-18" value="https://www.embedded.com/wp-content/uploads/media-1046509-losslessguastellafig3.jpg" style="text;html=1;align=center;verticalAlign=middle;resizable=0;points=[];autosize=1;strokeColor=none;fillColor=none;" vertex="1" parent="1">
          <mxGeometry x="200" y="1050" width="500" height="30" as="geometry" />
        </mxCell>
        <mxCell id="2CG9DLgCM-IoBq1qqFVT-22" style="edgeStyle=orthogonalEdgeStyle;rounded=0;orthogonalLoop=1;jettySize=auto;html=1;exitX=0.5;exitY=1;exitDx=0;exitDy=0;entryX=0.5;entryY=0;entryDx=0;entryDy=0;" edge="1" parent="1" source="2CG9DLgCM-IoBq1qqFVT-19" target="2CG9DLgCM-IoBq1qqFVT-21">
          <mxGeometry relative="1" as="geometry" />
        </mxCell>
        <mxCell id="2CG9DLgCM-IoBq1qqFVT-19" value="Element = element in dictionary for CHAR" style="rounded=0;whiteSpace=wrap;html=1;" vertex="1" parent="1">
          <mxGeometry x="367.5" y="750" width="120" height="40" as="geometry" />
        </mxCell>
        <mxCell id="2CG9DLgCM-IoBq1qqFVT-26" style="edgeStyle=orthogonalEdgeStyle;rounded=0;orthogonalLoop=1;jettySize=auto;html=1;exitX=0.5;exitY=1;exitDx=0;exitDy=0;entryX=0.5;entryY=0;entryDx=0;entryDy=0;" edge="1" parent="1" source="2CG9DLgCM-IoBq1qqFVT-21" target="2CG9DLgCM-IoBq1qqFVT-23">
          <mxGeometry relative="1" as="geometry" />
        </mxCell>
        <mxCell id="2CG9DLgCM-IoBq1qqFVT-21" value="Output Element to Decoded Output" style="rounded=0;whiteSpace=wrap;html=1;" vertex="1" parent="1">
          <mxGeometry x="367.5" y="810" width="120" height="40" as="geometry" />
        </mxCell>
        <mxCell id="2CG9DLgCM-IoBq1qqFVT-28" style="edgeStyle=orthogonalEdgeStyle;rounded=0;orthogonalLoop=1;jettySize=auto;html=1;exitX=0.5;exitY=1;exitDx=0;exitDy=0;entryX=0.5;entryY=0;entryDx=0;entryDy=0;" edge="1" parent="1" source="2CG9DLgCM-IoBq1qqFVT-23" target="2CG9DLgCM-IoBq1qqFVT-27">
          <mxGeometry relative="1" as="geometry" />
        </mxCell>
        <mxCell id="2CG9DLgCM-IoBq1qqFVT-23" value="Add&lt;br&gt;&amp;nbsp;Last STRING + Element[0]&lt;br&gt;to dictionary" style="rounded=0;whiteSpace=wrap;html=1;" vertex="1" parent="1">
          <mxGeometry x="346.25" y="880" width="162.5" height="50" as="geometry" />
        </mxCell>
        <mxCell id="2CG9DLgCM-IoBq1qqFVT-24" value="END" style="rounded=1;whiteSpace=wrap;html=1;" vertex="1" parent="1">
          <mxGeometry x="281.25" y="445" width="60" height="30" as="geometry" />
        </mxCell>
        <mxCell id="2CG9DLgCM-IoBq1qqFVT-34" style="edgeStyle=orthogonalEdgeStyle;rounded=0;orthogonalLoop=1;jettySize=auto;html=1;exitX=1;exitY=0.5;exitDx=0;exitDy=0;entryX=0.5;entryY=0;entryDx=0;entryDy=0;" edge="1" parent="1" source="2CG9DLgCM-IoBq1qqFVT-27" target="2CG9DLgCM-IoBq1qqFVT-10">
          <mxGeometry relative="1" as="geometry">
            <mxPoint x="428" y="410" as="targetPoint" />
            <Array as="points">
              <mxPoint x="750" y="975" />
              <mxPoint x="750" y="420" />
            </Array>
          </mxGeometry>
        </mxCell>
        <mxCell id="2CG9DLgCM-IoBq1qqFVT-27" value="New STRING = Element" style="rounded=0;whiteSpace=wrap;html=1;" vertex="1" parent="1">
          <mxGeometry x="356.25" y="960" width="142.5" height="30" as="geometry" />
        </mxCell>
        <mxCell id="2CG9DLgCM-IoBq1qqFVT-33" style="edgeStyle=orthogonalEdgeStyle;rounded=0;orthogonalLoop=1;jettySize=auto;html=1;exitX=0.5;exitY=1;exitDx=0;exitDy=0;entryX=1;entryY=0.5;entryDx=0;entryDy=0;" edge="1" parent="1" source="2CG9DLgCM-IoBq1qqFVT-29" target="2CG9DLgCM-IoBq1qqFVT-21">
          <mxGeometry relative="1" as="geometry" />
        </mxCell>
        <mxCell id="2CG9DLgCM-IoBq1qqFVT-29" value="Element = &lt;br&gt;Last STRING + Last STRING[0]" style="rounded=0;whiteSpace=wrap;html=1;" vertex="1" parent="1">
          <mxGeometry x="530" y="652.5" width="190" height="45" as="geometry" />
        </mxCell>
      </root>
    </mxGraphModel>
  </diagram>
</mxfile>
